<svg xmlns="http://www.w3.org/2000/svg" viewBox="0 0 240 240" fill="none">
  <!-- LegalKit: Document with shield accent -->
  <defs>
    <linearGradient id="lk-grad" x1="0" y1="0" x2="0" y2="1">
      <stop offset="0%" stop-color="#6366f1"/>
      <stop offset="100%" stop-color="#4338ca"/>
    </linearGradient>
  </defs>
  <!-- Document body with folded corner -->
  <path d="M55 30 L165 30 L195 60 L195 210 L55 210 Z" fill="url(#lk-grad)" rx="4"/>
  <!-- Folded corner -->
  <path d="M165 30 L165 60 L195 60 Z" fill="#312e81"/>
  <!-- Document lines -->
  <rect x="78" y="85" width="90" height="5" rx="2.5" fill="#ffffff" opacity="0.7"/>
  <rect x="78" y="102" width="75" height="5" rx="2.5" fill="#ffffff" opacity="0.5"/>
  <rect x="78" y="119" width="85" height="5" rx="2.5" fill="#ffffff" opacity="0.4"/>
  <rect x="78" y="136" width="60" height="5" rx="2.5" fill="#ffffff" opacity="0.3"/>
  <!-- Shield badge (bottom right corner) -->
  <g transform="translate(160, 155)">
    <path d="M0 -28 L28 -14 L28 8 C28 22 16 32 0 38 C-16 32 -28 22 -28 8 L-28 -14 Z" fill="#4338ca" stroke="#ffffff" stroke-width="3"/>
    <!-- Checkmark inside shield -->
    <polyline points="-10,2 -3,10 12,-6" fill="none" stroke="#ffffff" stroke-width="3.5" stroke-linecap="round" stroke-linejoin="round"/>
  </g>
  <!-- Paragraph icon (top left of doc) -->
  <text x="78" y="72" font-family="Georgia, serif" font-size="28" font-weight="bold" fill="#ffffff" opacity="0.9">ยง</text>
</svg>
